<?xml version="1.0" encoding="UTF-8" standalone="no"?><!DOCTYPE svg PUBLIC "-//W3C//DTD SVG 1.1//EN" "http://www.w3.org/Graphics/SVG/1.1/DTD/svg11.dtd"><!-- Generated by graphviz version 2.40.1 (20161225.0304)
 --><!-- Title: CFG Pages: 1 --><svg xmlns="http://www.w3.org/2000/svg" xmlns:xlink="http://www.w3.org/1999/xlink" width="411pt" height="368pt" viewBox="0.00 0.00 411.42 368.00">
<g id="graph0" class="graph" transform="scale(1 1) rotate(0) translate(4 364)">
<title>CFG</title>
<polygon fill="transparent" stroke="transparent" points="-4,4 -4,-364 407.4166,-364 407.4166,4 -4,4"/>
<!-- Foo -->
<g id="node1" class="node">
<title>Foo</title>
<polygon fill="none" stroke="#5f9ea0" points="227.5922,-360 173.5922,-360 173.5922,-324 227.5922,-324 227.5922,-360"/>
<text text-anchor="middle" x="200.5922" y="-337.8" font-family="Arial" font-size="14.00" fill="#ffffff">Foo</text>
</g>
<!-- Entry -->
<g id="node2" class="node">
<title>Entry</title>
<polygon fill="none" stroke="#5f9ea0" points="89.5922,-252 35.5922,-252 35.5922,-216 89.5922,-216 89.5922,-252"/>
<text text-anchor="middle" x="62.5922" y="-229.8" font-family="Arial" font-size="14.00" fill="#ffffff">Entry</text>
</g>
<!-- Foo&#45;&gt;Entry -->
<g id="edge1" class="edge">
<title>Foo-&gt;Entry</title>
<path fill="none" stroke="#5f9ea0" d="M173.3278,-342C133.1104,-342 62.5922,-342 62.5922,-342 62.5922,-342 62.5922,-262.3207 62.5922,-262.3207"/>
<polygon fill="#5f9ea0" stroke="#5f9ea0" points="66.0923,-262.3207 62.5922,-252.3207 59.0923,-262.3208 66.0923,-262.3207"/>
</g>
<!-- Block -->
<g id="node3" class="node">
<title>Block</title>
<polygon fill="none" stroke="#5f9ea0" points="227.5922,-252 173.5922,-252 173.5922,-216 227.5922,-216 227.5922,-252"/>
<text text-anchor="middle" x="200.5922" y="-229.8" font-family="Arial" font-size="14.00" fill="#ffffff">Block</text>
</g>
<!-- Foo&#45;&gt;Block -->
<g id="edge2" class="edge">
<title>Foo-&gt;Block</title>
<path fill="none" stroke="#5f9ea0" d="M200.5922,-323.6793C200.5922,-323.6793 200.5922,-262.0502 200.5922,-262.0502"/>
<polygon fill="#5f9ea0" stroke="#5f9ea0" points="204.0923,-262.0501 200.5922,-252.0502 197.0923,-262.0502 204.0923,-262.0501"/>
</g>
<!-- Exit -->
<g id="node4" class="node">
<title>Exit</title>
<polygon fill="none" stroke="#5f9ea0" points="360.5922,-252 306.5922,-252 306.5922,-216 360.5922,-216 360.5922,-252"/>
<text text-anchor="middle" x="333.5922" y="-229.8" font-family="Arial" font-size="14.00" fill="#ffffff">Exit</text>
</g>
<!-- Foo&#45;&gt;Exit -->
<g id="edge3" class="edge">
<title>Foo-&gt;Exit</title>
<path fill="none" stroke="#5f9ea0" d="M227.8277,-342C266.7386,-342 333.5922,-342 333.5922,-342 333.5922,-342 333.5922,-262.3207 333.5922,-262.3207"/>
<polygon fill="#5f9ea0" stroke="#5f9ea0" points="337.0923,-262.3207 333.5922,-252.3207 330.0923,-262.3208 337.0923,-262.3207"/>
</g>
<!-- String x = null -->
<g id="node5" class="node">
<title>String x = null</title>
<polygon fill="none" stroke="#5f9ea0" points="101.2768,-144 -.0924,-144 -.0924,-108 101.2768,-108 101.2768,-144"/>
<text text-anchor="middle" x="50.5922" y="-121.8" font-family="Arial" font-size="14.00" fill="#ffffff">String x = null</text>
</g>
<!-- Entry&#45;&gt;String x = null -->
<g id="edge9" class="edge">
<title>Entry-&gt;String x = null</title>
<path fill="none" stroke="transparent" d="M62.5922,-215.6793C62.5922,-215.6793 62.5922,-154.0502 62.5922,-154.0502"/>
<polygon fill="transparent" stroke="transparent" points="66.0923,-154.0501 62.5922,-144.0502 59.0923,-154.0502 66.0923,-154.0501"/>
</g>
<!-- Block&#45;&gt;String x = null -->
<g id="edge4" class="edge">
<title>Block-&gt;String x = null</title>
<path fill="none" stroke="#5f9ea0" d="M173.4996,-234C142.3284,-234 95.3883,-234 95.3883,-234 95.3883,-234 95.3883,-154.3207 95.3883,-154.3207"/>
<polygon fill="#5f9ea0" stroke="#5f9ea0" points="98.8884,-154.3207 95.3883,-144.3207 91.8884,-154.3208 98.8884,-154.3207"/>
</g>
<!-- if -->
<g id="node6" class="node">
<title>if</title>
<polygon fill="none" stroke="#5f9ea0" points="227.5922,-144 173.5922,-144 173.5922,-108 227.5922,-108 227.5922,-144"/>
<text text-anchor="middle" x="200.5922" y="-121.8" font-family="Arial" font-size="14.00" fill="#ffffff">if</text>
</g>
<!-- Block&#45;&gt;if -->
<g id="edge5" class="edge">
<title>Block-&gt;if</title>
<path fill="none" stroke="#5f9ea0" d="M200.5922,-215.6793C200.5922,-215.6793 200.5922,-154.0502 200.5922,-154.0502"/>
<polygon fill="#5f9ea0" stroke="#5f9ea0" points="204.0923,-154.0501 200.5922,-144.0502 197.0923,-154.0502 204.0923,-154.0501"/>
</g>
<!-- x.toString() -->
<g id="node7" class="node">
<title>x.toString()</title>
<polygon fill="none" stroke="#5f9ea0" points="384.038,-144 299.1464,-144 299.1464,-108 384.038,-108 384.038,-144"/>
<text text-anchor="middle" x="341.5922" y="-121.8" font-family="Arial" font-size="14.00" fill="#ffffff">x.toString()</text>
</g>
<!-- Block&#45;&gt;x.toString() -->
<g id="edge8" class="edge">
<title>Block-&gt;x.toString()</title>
<path fill="none" stroke="#5f9ea0" d="M227.7617,-234C258.0949,-234 302.9811,-234 302.9811,-234 302.9811,-234 302.9811,-154.3207 302.9811,-154.3207"/>
<polygon fill="#5f9ea0" stroke="#5f9ea0" points="306.4811,-154.3207 302.9811,-144.3207 299.4811,-154.3208 306.4811,-154.3207"/>
</g>
<!-- b -->
<g id="node8" class="node">
<title>b</title>
<polygon fill="none" stroke="#5f9ea0" points="207.5922,-36 153.5922,-36 153.5922,0 207.5922,0 207.5922,-36"/>
<text text-anchor="middle" x="180.5922" y="-13.8" font-family="Arial" font-size="14.00" fill="#ffffff">b</text>
</g>
<!-- String x = null&#45;&gt;b -->
<g id="edge10" class="edge">
<title>String x = null-&gt;b</title>
<path fill="none" stroke="transparent" d="M101.4725,-126C131.4657,-126 163.5922,-126 163.5922,-126 163.5922,-126 163.5922,-46.3207 163.5922,-46.3207"/>
<polygon fill="transparent" stroke="transparent" points="167.0923,-46.3207 163.5922,-36.3207 160.0923,-46.3208 167.0923,-46.3207"/>
</g>
<!-- if&#45;&gt;b -->
<g id="edge6" class="edge">
<title>if-&gt;b</title>
<path fill="none" stroke="#5f9ea0" d="M190.5922,-107.6793C190.5922,-107.6793 190.5922,-46.0502 190.5922,-46.0502"/>
<polygon fill="#5f9ea0" stroke="#5f9ea0" points="194.0923,-46.0501 190.5922,-36.0502 187.0923,-46.0502 194.0923,-46.0501"/>
</g>
<!-- x = &#39;&#39;Hello World&#39;&#39; -->
<g id="node9" class="node">
<title>x = ''Hello World''</title>
<polygon fill="none" stroke="#5f9ea0" points="403.2415,-36 279.9429,-36 279.9429,0 403.2415,0 403.2415,-36"/>
<text text-anchor="middle" x="341.5922" y="-13.8" font-family="Arial" font-size="14.00" fill="#ffffff">x = ''Hello World''</text>
</g>
<!-- if&#45;&gt;x = &#39;&#39;Hello World&#39;&#39; -->
<g id="edge7" class="edge">
<title>if-&gt;x = ''Hello World''</title>
<path fill="none" stroke="#5f9ea0" d="M227.7716,-120C253.938,-120 289.5689,-120 289.5689,-120 289.5689,-120 289.5689,-46.2356 289.5689,-46.2356"/>
<polygon fill="#5f9ea0" stroke="#5f9ea0" points="293.0689,-46.2355 289.5689,-36.2356 286.0689,-46.2356 293.0689,-46.2355"/>
</g>
<!-- x.toString()&#45;&gt;Exit -->
<g id="edge13" class="edge">
<title>x.toString()-&gt;Exit</title>
<path fill="none" stroke="transparent" d="M333.5922,-144.3207C333.5922,-144.3207 333.5922,-205.9498 333.5922,-205.9498"/>
<polygon fill="transparent" stroke="transparent" points="330.0923,-205.9498 333.5922,-215.9498 337.0923,-205.9499 330.0923,-205.9498"/>
</g>
<!-- b&#45;&gt;x.toString() -->
<g id="edge14" class="edge">
<title>b-&gt;x.toString()</title>
<path fill="none" stroke="transparent" d="M207.8074,-24C228.5873,-24 253.68,-24 253.68,-24 253.68,-24 253.68,-132 253.68,-132 253.68,-132 289.1811,-132 289.1811,-132"/>
<polygon fill="transparent" stroke="transparent" points="289.1812,-135.5001 299.1811,-132 289.1811,-128.5001 289.1812,-135.5001"/>
</g>
<!-- b&#45;&gt;x = &#39;&#39;Hello World&#39;&#39; -->
<g id="edge11" class="edge">
<title>b-&gt;x = ''Hello World''</title>
<path fill="none" stroke="transparent" d="M207.9037,-12C207.9037,-12 269.6602,-12 269.6602,-12"/>
<polygon fill="transparent" stroke="transparent" points="269.6603,-15.5001 279.6602,-12 269.6602,-8.5001 269.6603,-15.5001"/>
</g>
<!-- x = &#39;&#39;Hello World&#39;&#39;&#45;&gt;x.toString() -->
<g id="edge12" class="edge">
<title>x = ''Hello World''-&gt;x.toString()</title>
<path fill="none" stroke="transparent" d="M341.5922,-36.3207C341.5922,-36.3207 341.5922,-97.9498 341.5922,-97.9498"/>
<polygon fill="transparent" stroke="transparent" points="338.0923,-97.9498 341.5922,-107.9498 345.0923,-97.9499 338.0923,-97.9498"/>
</g>
</g>
</svg>